<?xml version="1.0" encoding="utf-8"?>
<!-- Generator: Adobe Illustrator 16.0.0, SVG Export Plug-In . SVG Version: 6.00 Build 0)  -->
<!DOCTYPE svg PUBLIC "-//W3C//DTD SVG 1.1//EN" "http://www.w3.org/Graphics/SVG/1.1/DTD/svg11.dtd">
<svg version="1.1" id="Layer_1" xmlns="http://www.w3.org/2000/svg" xmlns:xlink="http://www.w3.org/1999/xlink" x="0px" y="0px"
	 width="24px" height="24px" viewBox="0 0 24 24" enable-background="new 0 0 24 24" xml:space="preserve">
<path fill="#2B3260" d="M22.676,0H1.325C0.593,0,0,0.593,0,1.325v21.351C0,23.407,0.593,24,1.325,24H12.82v-9.294H9.692v-3.622
	h3.128V8.413c0-3.1,1.893-4.788,4.658-4.788c1.325,0,2.463,0.098,2.795,0.143v3.24l-1.918,0c-1.504,0-1.795,0.715-1.795,1.764v2.312
	h3.586l-0.467,3.622h-3.12V24h6.116C23.407,24,24,23.407,24,22.676V1.325C24,0.593,23.407,0,22.676,0z"/>
</svg>
