<?xml version="1.0" encoding="utf-8"?>
<!-- Generator: Adobe Illustrator 16.0.0, SVG Export Plug-In . SVG Version: 6.00 Build 0)  -->
<!DOCTYPE svg PUBLIC "-//W3C//DTD SVG 1.1//EN" "http://www.w3.org/Graphics/SVG/1.1/DTD/svg11.dtd">
<svg version="1.1"
	 id="Layer_1" xmlns:rdf="http://www.w3.org/1999/02/22-rdf-syntax-ns#" xmlns:cc="http://creativecommons.org/ns#" xmlns:dc="http://purl.org/dc/elements/1.1/"
	 xmlns="http://www.w3.org/2000/svg" xmlns:xlink="http://www.w3.org/1999/xlink" x="0px" y="0px" width="29.485px" height="24px"
	 viewBox="7.372 6 29.485 24" enable-background="new 7.372 6 29.485 24" xml:space="preserve">
<g transform="translate(-539.18 -568.86)">
	<path fill="#2B3260" d="M555.85,598.86c11.144,0,17.238-9.232,17.238-17.239c0-0.262-0.005-0.523-0.017-0.783
		c1.183-0.855,2.211-1.922,3.022-3.137c-1.085,0.482-2.254,0.807-3.479,0.954c1.251-0.75,2.211-1.937,2.665-3.351
		c-1.171,0.694-2.467,1.199-3.848,1.471c-1.105-1.177-2.68-1.914-4.422-1.914c-3.346,0-6.059,2.713-6.059,6.058
		c0,0.475,0.053,0.938,0.157,1.381c-5.036-0.253-9.501-2.665-12.489-6.331c-0.52,0.896-0.82,1.936-0.82,3.045
		c0,2.102,1.07,3.958,2.696,5.043c-0.994-0.031-1.928-0.304-2.744-0.758c-0.001,0.025-0.001,0.05-0.001,0.077
		c0,2.935,2.089,5.384,4.861,5.939c-0.51,0.139-1.045,0.213-1.598,0.213c-0.39,0-0.77-0.038-1.139-0.109
		c0.771,2.408,3.008,4.159,5.66,4.208c-2.074,1.625-4.686,2.593-7.525,2.593c-0.489,0-0.971-0.028-1.445-0.084
		C549.244,597.857,552.428,598.86,555.85,598.86"/>
</g>
</svg>
